<?xml version="1.0" encoding="iso-8859-1"?>
<!-- Uploaded to: SVG Repo, www.svgrepo.com, Generator: SVG Repo Mixer Tools -->
<!DOCTYPE svg PUBLIC "-//W3C//DTD SVG 1.1//EN" "http://www.w3.org/Graphics/SVG/1.1/DTD/svg11.dtd">
<svg  height="800px" width="800px" version="1.1" id="Capa_1" xmlns="http://www.w3.org/2000/svg" xmlns:xlink="http://www.w3.org/1999/xlink"
	 viewBox="0 0 193.921 193.921" xml:space="preserve">
<path fill="currentColor" d="M193.887,111.272c-0.188-1.625-1.167-3.047-2.617-3.805l-0.194-0.091c-0.447-0.187-11.015-4.581-17.491-5.49
	c-1.228-0.173-2.52,0.068-3.704,0.661l-21.749,7.706c-4.243-2.182-20.33-10.448-39.28-20.116l44.797-23.602
	c1.317-0.694,2.084-1.884,2.049-3.183c-0.034-1.298-0.862-2.445-2.215-3.068l-15.1-6.964c-1.449-0.668-3.752-0.932-5.345-0.592
	L64.221,67.516C50.06,60.409,38.373,54.646,33.5,52.492c-3.577-1.581-7.926-2.378-12.925-2.378c-8.249,0-18.341,2.371-20.206,5.87
	c-0.073,0.134-4.997,14.742,23.441,31.09l106.053,54.043c0.106,0.05,2.635,1.316,5.095,1.748c4.163,0.731,8.671,0.943,13.308,0.943
	h1.344c0.643,0,1.275,0,1.896,0h0.419v-0.148c3,0,5.204-1.298,5.558-1.543l34.687-26.439l0.082-0.099
	C193.487,114.511,194.073,112.903,193.887,111.272z M151.922,140.995l0.001,0v0.016L151.922,140.995z"/>
</svg>
